<?xml version="1.0" encoding="utf-8"?>
<!-- Generator: Adobe Illustrator 26.2.1, SVG Export Plug-In . SVG Version: 6.00 Build 0)  -->
<svg version="1.1" id="Layer_1" xmlns="http://www.w3.org/2000/svg" xmlns:xlink="http://www.w3.org/1999/xlink" x="0px" y="0px"
	 viewBox="0 0 163 494.3" style="enable-background:new 0 0 163 494.3;" xml:space="preserve">
<style type="text/css">
	.st0{fill:#9F616A;}
	.st1{fill:#2F2E41;}
	.st2{fill:#116EE9;}
	.st3{fill:#116EDF;}
	.st4{fill:#6C63FF;}
</style>
<path class="st0" d="M102.2,99.5L55.1,86.7c12.6-11.9,18-23,16.4-33.5h30.7V99.5z"/>
<polygon class="st1" points="107.2,460.4 92,462.6 73.7,294.3 44.4,461.9 28.8,462.6 28.8,250 125.8,250 "/>
<path class="st1" d="M36.6,494.4L36.6,494.4c4.9,0.1,9.3-3.1,10.6-7.8l1.1-16.6l-2.2-11.8c-5.9-4.9-11.9-4.8-17.9,0l-1.9,24.6
	c-0.5,5.9,3.9,11,9.8,11.5C36.3,494.4,36.5,494.4,36.6,494.4z"/>
<path class="st1" d="M99.4,494.4L99.4,494.4c3.8,0.1,7.4-1.8,9.3-5c0.5-1.5,0.9-2.9,1.4-4.4l0.9-13.7c-0.1-0.9-0.1-1.7-0.2-2.5
	l-1.1-6c-0.8-4-3.9-7.3-7.9-8c-0.3-0.1-0.7-0.1-1-0.1c-5.3-0.4-9.9,3.9-10.3,9.2c-0.4,5.5-1.1,13.7-1.5,18.6
	c-0.4,5.5,3.2,10.7,8.7,11.7C98.3,494.3,98.9,494.4,99.4,494.4z"/>
<circle class="st0" cx="95.8" cy="48.2" r="27.1"/>
<path class="st2" d="M130,253.6H26.6C40,191.5,40,141.4,29.3,101c-1.4-5.3,1.4-10.9,6.6-12.9l27.8-10.7c8.4,10.8,20.1,15.5,38.5,8.6
	l14.6,3c7.3,1.5,12.4,8.2,12,15.7c-1.1,15.8-0.6,31.8-1.6,45.5C124.3,192.8,123.1,226,130,253.6z"/>
<path class="st1" d="M81.5,11.6c0,0,15.7-15.8,34.2-0.6l5,1.3l-3.6,2.5c0,0,18.5,7.6,17.1,23.3c0,0-2.9-0.6-4.3,0
	c-1.4,0.6-2.1,7.6-2.1,7.6s-2.1-5-2.9-5.7c-0.7-0.6-10.7,6.9-27.1-4.4c0,0-5,11.3-10.7,10.1c-5.7-1.3-13.6-0.6-17.1,7.6
	C70.1,53.2,50.9,16.6,81.5,11.6z"/>
<path class="st0" d="M135,237.9l-9.2,12.3c-4,5.3-2.9,12.9,2.4,16.8c0,0,0.1,0.1,0.1,0.1l0,0c5.4,3.9,12.9,2.7,16.8-2.7
	c1.1-1.5,1.8-3.3,2.1-5.1l2.6-16.4l5-70.6l-3.6-35.7l-22.8,8.6l6.4,30.7V237.9z"/>
<path class="st2" d="M125.8,153.7l27.8-12.8l-1.4-10.1c0-17.1-10.5-32.5-26.5-38.7l-8.5-3.3L125.8,153.7z"/>
<path class="st0" d="M24.5,235.1l9.2,12.3c4,5.3,2.9,12.9-2.4,16.8c0,0-0.1,0.1-0.1,0.1l0,0c-5.4,3.9-12.9,2.7-16.8-2.7
	c-1.1-1.5-1.8-3.3-2.1-5.1L9.5,240l-5-70.6l3.6-35.7l22.8,8.6L24.5,173V235.1z"/>
<path class="st3" d="M33.7,150.9L5.9,138l1.4-10.1c0-17.1,10.5-32.5,26.5-38.7l8.5-3.3L33.7,150.9z"/>
<path class="st4" d="M326.5,398.3"/>
</svg>
